<?xml version="1.0" standalone="no"?>
<!DOCTYPE svg PUBLIC "-//W3C//DTD SVG 1.1//EN" "http://www.w3.org/Graphics/SVG/1.1/DTD/svg11.dtd" >
<svg xmlns="http://www.w3.org/2000/svg">
<metadata>
Created by FontForge 20120731 at Thu Jan 30 14:34:16 2014
 By Matt Styles
Created by Matt Styles with FontForge 2.0 (http://fontforge.sf.net)
</metadata>
<defs>
<font id="icons-appstudio" horiz-adv-x="353" >
  <font-face 
    font-family="icons-appstudio"
    font-weight="500"
    font-stretch="normal"
    units-per-em="512"
    panose-1="2 0 6 3 0 0 0 0 0 0"
    ascent="448"
    descent="-64"
    bbox="-0.266667 -64 512 448"
    underline-thickness="25"
    underline-position="-52"
    unicode-range="U+E001-E016"
  />
<missing-glyph horiz-adv-x="187" 
d="M17 0v341h136v-341h-136zM34 17h102v307h-102v-307z" />
    <glyph glyph-name=".notdef" horiz-adv-x="187" 
d="M17 0v341h136v-341h-136zM34 17h102v307h-102v-307z" />
    <glyph glyph-name=".null" horiz-adv-x="0" 
 />
    <glyph glyph-name="nonmarkingreturn" horiz-adv-x="170" 
 />
    <glyph glyph-name="uniE001" unicode="&#xe001;" horiz-adv-x="366" 
d="M366 198l-6 -88q-1 -8 -7 -13t-13 -4l-30 2q-8 1 -13 7t-4 13l6 88q2 13 15 16q-5 51 -42.5 86.5t-89.5 35.5t-89.5 -35.5t-42.5 -86.5q15 -2 17 -16l6 -88q1 -7 -4 -13t-13 -7l-30 -2q-7 -1 -13 4t-7 13l-6 88q-2 13 11 18q3 68 52.5 116t118.5 48t118.5 -47.5
t52.5 -115.5q15 -4 13 -19zM277 160q0 -39 -28 -66.5t-67 -27.5t-66.5 27.5t-27.5 66.5t27.5 66.5t66.5 27.5t67 -27.5t28 -66.5zM230 160l-77 44v-89z" />
    <glyph glyph-name="uniE002" unicode="&#xe002;" horiz-adv-x="393" 
d="M335 84v236h58v-236h-58zM154 339l181 -137l-181 -138v275zM0 160v92h180v-92h-180z" />
    <glyph glyph-name="uniE003" unicode="&#xe003;" horiz-adv-x="512" 
d="M0 -64v512h512v-512h-512z" />
    <glyph glyph-name="uniE004" unicode="&#xe004;" horiz-adv-x="209" 
d="M199 387q10 0 10 -10v-332q0 -11 -10 -11l-96 114l-92 -114q-11 0 -11 11v332q0 10 11 10h188zM141 273zM127 316zM81 316zM67 273zM104 246z" />
    <glyph glyph-name="uniE005" unicode="&#xe005;" horiz-adv-x="511" 
d="M288 303l121 41l102 -303l-121 -41zM0 0v352h128v-352h-128zM32 288v-32h64v32h-64zM160 0v352h128v-352h-128zM192 288v-32h64v32h-64z" />
    <glyph glyph-name="uniE006" unicode="&#xe006;" horiz-adv-x="53" 
d="M40 412v3l5 4v-10q0 -3 -2 -3h-40q-3 0 -3 3v29q0 3 3 3h15l-6 -5h-7v-24h35zM36 430q-15 0 -22 -12q1 22 22 22v8l17 -13l-17 -14v9z" />
    <glyph glyph-name="uniE007" unicode="&#xe007;" horiz-adv-x="354" 
d="M59 34l-59 59l296 296l58 -59zM0 330l59 59l295 -296l-58 -58z" />
    <glyph glyph-name="uniE008" unicode="&#xe008;" 
d="M353 283q0 -12 -8 -20t-20 -8h-297q-12 0 -20 8t-8 20t8 20t20 8h297q12 0 20 -8t8 -20zM353 181q0 -12 -8 -20t-20 -8h-297q-12 0 -20 8t-8 20t8 20t20 8h297q12 0 20 -8t8 -20zM353 78q0 -12 -8 -20t-20 -8h-297q-12 0 -20 8t-8 20t8 20.5t20 8.5h297q12 0 20 -8.5
t8 -20.5z" />
    <glyph glyph-name="uniE009" unicode="&#xe009;" 
d="M250 329l-49 48l152 10l-10 -151l-48 48l-64 -64l-45 45zM58 138l64 64l46 -46l-64 -64l48 -48l-152 -10l10 152z" />
    <glyph glyph-name="uniE00A" unicode="&#xe00a;" horiz-adv-x="248" 
d="M49 366q30 19 70 19q57 0 92 -26q37 -27 37 -79q0 -31 -16 -53q-8 -12 -36 -34l-17 -13q-14 -10 -19 -26q-3 -9 -3 -29h-66q1 41 8 57q6 17 32 37l18 13q4 3 14 15q10 13 10 30t-11 33t-39 16t-40 -19q-12 -18 -12 -39h-71q3 70 49 98zM89 92h73v-71h-73v71z" />
    <glyph glyph-name="uniE00B" unicode="&#xe00b;" 
d="M353 209h-62v-168h-83v96h-62v-96h-83v168h-63l177 185z" />
    <glyph glyph-name="uniE00C" unicode="&#xe00c;" horiz-adv-x="372" 
d="M65 294q0 50 35.5 85.5t85.5 35.5t85.5 -35.5t35.5 -85.5v-65h28q16 0 26.5 -10.5t10.5 -26.5v-186q0 -16 -10.5 -26.5t-26.5 -10.5h-298q-16 0 -26.5 10.5t-10.5 26.5v186q0 16 10.5 26.5t26.5 10.5h28v65zM112 229h149v65q0 31 -22 53t-53 22t-52.5 -22t-21.5 -53v-65z
M149 127q0 -19 17 -31l-8 -48q0 -14 14 -14h28q14 0 14 14l-8 48q17 12 17 31q0 16 -10.5 26.5t-26.5 10.5t-26.5 -10.5t-10.5 -26.5z" />
    <glyph glyph-name="uniE00D" unicode="&#xe00d;" 
d="M293 286l45 -46l-143 -10l9 144l46 -45l60 60l43 -43zM104 96l-61 -60l-43 43l60 60l-45 46l144 9l-10 -143z" />
    <glyph glyph-name="uniE00E" unicode="&#xe00e;" horiz-adv-x="393" 
d="M0 211q0 45 45 45t45 -45t-45 -45t-45 45zM151 211q0 45 45 45q46 0 46 -45t-46 -45q-45 0 -45 45zM393 211q0 -13 -6 -23q-5 -9 -17 -16q-10 -6 -23 -6q-11 0 -22 6q-12 7 -17 16q-6 11 -6 23q0 19 13 32t32 13q13 0 23 -6q12 -7 17 -16q6 -11 6 -23z" />
    <glyph glyph-name="uniE00F" unicode="&#xe00f;" horiz-adv-x="439" 
d="M321 137q0 -8 -5 -13l-29 -29q-5 -5 -13 -5t-13 5l-42 42l-42 -42q-5 -5 -12 -5q-8 0 -13 5l-29 29q-6 6 -6 13t6 13l42 42l-42 42q-6 6 -6 13t6 13l29 29q5 5 13 5q7 0 12 -5l42 -42l42 42q5 5 13 5t13 -5l29 -29q5 -5 5 -13t-5 -13l-42 -42l42 -42q5 -5 5 -13zM366 192
q0 30 -12 57t-31 46q-20 20 -47 32q-25 11 -57 11q-31 0 -56 -11q-27 -12 -47 -32q-19 -19 -31 -46t-12 -57t12 -57t31 -46q20 -20 47 -32q25 -11 56 -11q32 0 57 11q27 12 47 32q19 19 31 46t12 57zM439 192q0 -59 -30 -110t-79 -80t-111 -29q-61 0 -110 29q-50 30 -80 80
q-29 49 -29 110t29 110q30 50 80 80q49 29 110 29q62 0 111 -29t79 -80t30 -110z" />
    <glyph glyph-name="uniE010" unicode="&#xe010;" horiz-adv-x="439" 
d="M320 183q0 -4 -3 -7l-91 -91q-3 -3 -7 -3q-3 0 -6 3l-92 91q-2 2 -2 7q0 3 3 6t6 3h55v101q0 3 3 6t6 3h55q3 0 6 -3t3 -6v-101h55q3 0 6 -3t3 -6zM366 192q0 30 -12 57t-31 46q-20 20 -47 32q-25 11 -57 11q-31 0 -56 -11q-27 -12 -47 -32q-19 -19 -31 -46t-12 -57
t12 -57t31 -46q20 -20 47 -32q25 -11 56 -11q32 0 57 11q27 12 47 32q19 19 31 46t12 57zM439 192q0 -59 -30 -110t-79 -80t-111 -29q-61 0 -110 29q-50 30 -80 80q-29 49 -29 110t29 110q30 50 80 80q49 29 110 29q62 0 111 -29t79 -80t30 -110z" />
    <glyph glyph-name="uniE011" unicode="&#xe011;" horiz-adv-x="439" 
d="M340 229q0 -8 -5 -13l-92 -92l-29 -29q-5 -5 -13 -5t-13 5l-29 29l-55 55q-5 5 -5 13t5 13l29 29q5 5 13 5t13 -5l42 -42l79 79q5 5 13 5q7 0 12 -5l30 -30q5 -5 5 -12zM366 192q0 30 -12 57t-31 46q-20 20 -47 32q-25 11 -57 11q-31 0 -56 -11q-27 -12 -47 -32
q-19 -19 -31 -46t-12 -57t12 -57t31 -46q20 -20 47 -32q25 -11 56 -11q32 0 57 11q27 12 47 32q19 19 31 46t12 57zM439 192q0 -59 -30 -110t-79 -80t-111 -29q-61 0 -110 29q-50 30 -80 80q-29 49 -29 110t29 110q30 50 80 80q49 29 110 29q62 0 111 -29t79 -80t30 -110z
" />
    <glyph glyph-name="uniE012" unicode="&#xe012;" horiz-adv-x="512" 
d="M239 209q0 28 -20 48t-48 20q-29 0 -49 -20t-20 -48t20 -48t49 -20q28 0 48 20t20 48zM444 73q0 14 -10 24t-24 10t-24 -10q-11 -11 -11 -24q0 -15 10 -25t25 -10q14 0 24 10t10 25zM444 346q0 14 -10 24t-24 10t-24 -10q-11 -11 -11 -24q0 -15 10 -25t25 -10q14 0 24 10
t10 25zM341 233v-49q0 -1 -2 -5q-1 -3 -4 -3l-41 -6q-4 -13 -9 -21q4 -6 24 -30q2 -4 2 -6q0 -3 -2 -5q-8 -10 -22 -24q-15 -15 -21 -15q-3 0 -5 1l-31 24q-16 -7 -20 -8q-2 -22 -7 -41q-2 -7 -8 -7h-49q-1 0 -5 2q-3 2 -3 5l-6 41q-14 5 -20 8l-32 -24q-1 -1 -5 -1
q-2 0 -6 2q-38 35 -38 42q0 1 2 5q1 1 4.5 6t6.5 9q3 3 5 6l4 6t3 4q-6 13 -9 22l-41 6q-2 0 -4 3q-2 4 -2 5v49q0 1 2 5q2 3 4 3l41 7q3 10 9 20q-4 6 -24 30q-2 4 -2 6q0 3 2 5q12 15 22 24q18 16 21 16q2 0 6 -2l30 -24q11 6 21 8q3 29 6 41q2 7 8 7h49q2 0 6 -2
q2 -1 2 -5l7 -41q14 -5 20 -8l31 24q2 2 5 2l6 -3q38 -35 38 -42q0 -3 -1 -5q-1 -1 -5 -6t-7 -9l-12 -16q7 -15 9 -22l41 -6q3 0 4 -2q2 -4 2 -6zM512 91v-37q0 -3 -40 -8q-3 -7 -8 -14q14 -31 14 -37q0 -1 -1 -2l-33 -19q-2 0 -13 13q-9 11 -13 18q-2 0 -4.5 -0.5
t-3.5 -0.5t-3.5 0.5t-4.5 0.5q-2 -5 -14 -18q-11 -13 -13 -13q-11 6 -33 19q-1 1 -1 2q0 6 14 37q-5 7 -8 14q-40 5 -40 8v37q0 3 40 8q3 7 8 14q-14 31 -14 37q0 1 1 2l10 5q3 1 5.5 2.5t5 3.5t4.5 3l8 5q2 0 13 -13q12 -13 14 -18q2 0 4.5 0.5t3.5 0.5t3.5 -0.5t4.5 -0.5
q14 20 24 30l2 1l4 -2q3 -2 12 -7t17 -10q1 -1 1 -2q0 -6 -14 -37q5 -7 8 -14q40 -5 40 -8zM512 364v-37q0 -3 -40 -8q-3 -7 -8 -14q14 -31 14 -37q0 -1 -1 -2l-33 -19q-2 0 -13 13q-9 11 -13 18q-2 0 -4.5 -0.5t-3.5 -0.5t-3.5 0.5t-4.5 0.5q-2 -5 -14 -18q-11 -13 -13 -13
q-11 6 -33 19q-1 1 -1 2q0 6 14 37q-5 7 -8 14q-40 5 -40 8v37q0 4 40 9q2 5 8 13q-14 31 -14 37q0 1 1 2l10 5q3 1 5.5 2.5t5 3.5t4.5 3l8 5q2 0 13 -13q12 -13 14 -18q2 0 4.5 0.5t3.5 0.5t3.5 -0.5t4.5 -0.5q14 19 24 30l2 1l4 -2q3 -2 12 -7t17 -10q1 -1 1 -2
q0 -6 -14 -37q6 -8 8 -13q40 -5 40 -9z" />
    <glyph glyph-name="uniE013" unicode="&#xe013;" 
d="M345 236q8 0 8 -8v-34q0 -8 -8 -8h-15q-8 0 -10 -8l-17 -42q-4 -7 2 -13l11 -11q6 -6 0 -12l-24 -24q-6 -6 -12 0l-10 11q-5 5 -13 1l-47 -19q-7 -2 -7 -11v-16q0 -8 -9 -8h-34q-8 0 -8 8v16q0 8 -8 10l-41 17q-7 4 -13 -2l-12 -12q-6 -6 -12 0l-24 25q-6 6 0 11l11 11
q6 6 2 13l-20 47q-2 8 -11 8h-16q-8 0 -8 8v34q0 8 8 8h16q9 0 11 8l16 41q4 7 -2 13l-12 12q-5 6 0 11l25 25q6 6 11 0l11 -11q5 -5 12 -2l48 21q8 2 8 10v15q0 8 8 8h34q9 0 9 -8v-15q0 -8 7 -10l42 -17q7 -4 13 2l11 11q6 6 11 0l24 -24q6 -6 0 -12l-10 -10q-5 -5 -1 -12
l20 -48q2 -8 10 -8h15zM177 131q33 0 56.5 23.5t23.5 56.5t-23.5 56.5t-56.5 23.5t-56.5 -23.5t-23.5 -56.5t23.5 -56.5t56.5 -23.5z" />
    <glyph glyph-name="uniE014" unicode="&#xe014;" 
d="M296 161q24 0 40.5 -17t16.5 -41t-16.5 -40.5t-40.5 -16.5t-41 16.5t-17 40.5q0 4 2 12l-138 62q-18 -21 -45 -21q-24 0 -40.5 16.5t-16.5 40.5t16.5 40.5t40.5 16.5q26 0 44 -20l138 60q0 2 -0.5 4t-0.5 4q0 24 17 41t41 17t40.5 -17t16.5 -41t-16.5 -40.5t-40.5 -16.5
q-26 0 -43 19l-139 -59q0 -1 0.5 -3.5t0.5 -4.5q0 -1 -0.5 -3.5t-0.5 -3.5l140 -63q16 18 42 18z" />
    <glyph glyph-name="uniE015" unicode="&#xe015;" horiz-adv-x="344" 
d="M338 301q6 -4 6 -7t-3 -6l-156 -94q-9 -4 -13 -4q-2 0 -13 4l-157 95q-2 2 -2 5q0 2 3 5l158 90q6 2 11 2q4 0 12 -2l151 -86q1 0 3 -2zM338 222q6 -4 6 -7q0 -2 -3 -5l-156 -95q-7 -3 -13 -3q-5 0 -13 3l-157 95q-2 2 -2 5t3 6l24 14l132 -81q8 -3 13 -3q4 0 13 4
l132 80l18 -10v-1q2 0 3 -1v-1zM338 148q6 -4 6 -7t-3 -6l-156 -94q-9 -4 -13 -4q-2 0 -13 4l-157 95q-2 2 -2 5q0 2 3 5l24 14l132 -80q8 -3 13 -3q6 0 13 3l132 80l18 -10q1 0 3 -2z" />
    <glyph glyph-name="uniE016" unicode="&#xe016;" horiz-adv-x="90" 
d="M0 60q0 45 45 45t45 -45q0 -46 -45 -46t-45 46zM0 211q0 45 45 45t45 -45t-45 -45t-45 45zM45 407q13 0 23 -6t16 -16q6 -11 6 -23t-6 -23q-6 -10 -16 -16q-11 -6 -23 -6q-19 0 -32 13t-13 32q0 12 6 23q5 9 17 16q11 6 22 6z" />
  </font>
</defs>
</svg>
